HIERARCHY
ROOT Hips
{
	OFFSET -0.001795 -0.223333 0.028219
	CHANNELS 6 Xposition Yposition Zposition Zrotation Yrotation Xrotation 
	JOINT LeftUpLeg
	{
		OFFSET 0.069520 -0.091406 -0.006815
		CHANNELS 3 Zrotation Yrotation Xrotation
		JOINT LeftLeg
		{
			OFFSET 0.034277 -0.375199 -0.004496
			CHANNELS 3 Zrotation Yrotation Xrotation
			JOINT LeftFoot
			{
				OFFSET -0.013596 -0.397961 -0.043693
				CHANNELS 3 Zrotation Yrotation Xrotation
				JOINT LeftToe
				{
					OFFSET 0.026358 -0.055791 0.119288
					CHANNELS 3 Zrotation Yrotation Xrotation
					End Site
					{
						OFFSET 0.000000 0.000000 0.000000
					}
				}
			}
		}
	}
	JOINT RightUpLeg
	{
		OFFSET -0.067670 -0.090522 -0.004320
		CHANNELS 3 Zrotation Yrotation Xrotation
		JOINT RightLeg
		{
			OFFSET -0.038290 -0.382569 -0.008850
			CHANNELS 3 Zrotation Yrotation Xrotation
			JOINT RightFoot
			{
				OFFSET 0.015774 -0.398415 -0.042312
				CHANNELS 3 Zrotation Yrotation Xrotation
				JOINT RightToe
				{
					OFFSET -0.025372 -0.048144 0.123348
					CHANNELS 3 Zrotation Yrotation Xrotation
					End Site
					{
						OFFSET 0.000000 0.000000 0.000000
					}
				}
			}
		}
	}
	JOINT Spine
	{
		OFFSET -0.002533 0.108963 -0.026696
		CHANNELS 3 Zrotation Yrotation Xrotation
		JOINT Spine1
		{
			OFFSET 0.005487 0.135180 0.001092
			CHANNELS 3 Zrotation Yrotation Xrotation
			JOINT Spine2
			{
				OFFSET 0.001457 0.052922 0.025425
				CHANNELS 3 Zrotation Yrotation Xrotation
				JOINT Neck
				{
					OFFSET -0.002778 0.213870 -0.042857
					CHANNELS 3 Zrotation Yrotation Xrotation
					JOINT Head
					{
						OFFSET 0.005152 0.064970 0.051349
						CHANNELS 3 Zrotation Yrotation Xrotation
						End Site
						{
							OFFSET 0.000000 0.000000 0.000000
						}
					}
				}
				JOINT LeftShoulder
				{
					OFFSET 0.078845 0.121749 -0.034090
					CHANNELS 3 Zrotation Yrotation Xrotation
					JOINT LeftArm
					{
						OFFSET 0.090977 0.030469 -0.008868
						CHANNELS 3 Zrotation Yrotation Xrotation
						JOINT LeftForeArm
						{
							OFFSET 0.259612 -0.012772 -0.027456
							CHANNELS 3 Zrotation Yrotation Xrotation
							JOINT LeftHand
							{
								OFFSET 0.249234 0.008986 -0.001171
								CHANNELS 3 Zrotation Yrotation Xrotation
								End Site
								{
									OFFSET 0.000000 0.000000 0.000000
								}
							}
						}
					}
				}
				JOINT RightShoulder
				{
					OFFSET -0.081759 0.118833 -0.038615
					CHANNELS 3 Zrotation Yrotation Xrotation
					JOINT RightArm
					{
						OFFSET -0.096012 0.032551 -0.009143
						CHANNELS 3 Zrotation Yrotation Xrotation
						JOINT RightForeArm
						{
							OFFSET -0.253742 -0.013329 -0.021401
							CHANNELS 3 Zrotation Yrotation Xrotation
							JOINT RightHand
							{
								OFFSET -0.255298 0.007772 -0.005559
								CHANNELS 3 Zrotation Yrotation Xrotation
								End Site
								{
									OFFSET 0.000000 0.000000 0.000000
								}
							}
						}
					}
				}
			}
		}
	}
}
MOTION
Frames: 18
Frame Time: 0.050000
0.000000 0.929005 0.000000 -1.776680 -1.047158 6.170111 7.197262 -0.288771 -3.789878 2.099566 -0.142590 -1.646379 1.748938 5.229659 4.451148 0.000000 0.000000 0.000000 -3.816019 0.615394 -6.844169 -1.836033 0.366792 3.187422 -1.105413 -4.105859 2.942201 0.000000 0.000000 0.000000 0.504622 0.187242 -4.349464 -0.802820 0.433732 -3.467452 -0.866141 0.597307 6.615398 0.753287 0.254153 -10.293094 0.000000 0.000000 0.000000 -13.650921 -5.519038 1.385249 -56.816055 -9.553245 -2.394236 -14.788527 -19.819286 3.333246 0.000000 0.000000 0.000000 10.961833 5.290396 1.492496 64.089004 8.321252 -1.817598 13.357993 22.099789 3.135722 0.000000 0.000000 0.000000 
0.000046 0.928908 0.001134 -1.809209 -2.169972 7.076495 6.531195 -0.273675 -3.176454 3.466775 -0.154869 -3.514630 1.672119 5.249499 5.203266 0.000000 0.000000 0.000000 -3.998949 0.656303 -7.240231 -1.802762 0.277581 1.746893 -0.176110 -2.439969 3.966306 0.000000 0.000000 0.000000 0.539620 0.227202 -5.115443 -1.413665 0.686563 -3.197098 -0.261582 1.034915 5.688444 -1.063603 1.488806 -10.827610 0.000000 0.000000 0.000000 -13.907211 -4.634924 0.979311 -56.613935 -9.038429 -2.530898 -15.222622 -18.514675 3.178730 0.000000 0.000000 0.000000 9.874707 4.939536 1.310275 65.061144 7.487238 -2.211767 14.190813 21.855142 3.216762 0.000000 0.000000 0.000000 
0.000078 0.929247 0.002212 -1.328171 -1.389923 7.180156 6.009200 -0.306958 -3.708612 3.878832 -0.225929 -2.876608 1.281760 4.126457 3.884483 0.000000 0.000000 0.000000 -4.268580 0.673717 -7.683998 -1.899341 0.333162 2.487706 -0.770628 -3.432130 3.172740 0.000000 0.000000 0.000000 0.266065 0.215772 -5.015073 -1.119117 0.576281 -4.289369 -1.030124 0.514105 6.037947 -0.704527 1.218849 -10.226005 0.000000 0.000000 0.000000 -13.615704 -4.266260 0.815781 -56.754854 -9.300873 -2.450701 -14.987857 -16.205958 2.731997 0.000000 0.000000 0.000000 11.546304 5.504947 1.519218 63.678627 6.960326 -2.508785 12.774806 21.232140 2.874037 0.000000 0.000000 0.000000 
-0.000124 0.929504 0.003432 -1.324432 -1.645307 7.782317 5.880273 -0.327233 -4.047989 4.151891 -0.237244 -3.041652 1.279486 4.298885 4.463873 0.000000 0.000000 0.000000 -4.279868 0.738786 -8.558770 -2.075341 0.368867 2.744040 -0.771704 -3.382555 3.020742 0.000000 0.000000 0.000000 0.048104 0.240270 -5.591719 -1.852133 0.883774 -4.187157 -0.189882 -0.194598 5.113994 -2.336038 2.173151 -8.399451 0.000000 0.000000 0.000000 -12.747235 -3.593251 0.694775 -57.573939 -8.934086 -2.529321 -15.057548 -14.691817 2.494732 0.000000 0.000000 0.000000 10.690508 5.799280 1.504578 63.825847 6.254275 -2.856538 13.217539 20.268166 2.744864 0.000000 0.000000 0.000000 
-0.000430 0.929969 0.004522 -1.231518 -0.807217 7.633284 5.456945 -0.335925 -4.007809 4.559997 -0.257465 -3.143000 1.307391 4.462918 4.662084 0.000000 0.000000 0.000000 -4.346479 0.694374 -8.045529 -1.999254 0.341663 2.409954 -1.222643 -4.451422 3.135396 0.000000 0.000000 0.000000 -0.071238 0.238755 -5.708284 -1.570090 0.773747 -4.303561 -0.581583 -0.881748 5.225887 -2.245833 2.105960 -8.542705 0.000000 0.000000 0.000000 -12.642996 -3.508234 0.686263 -57.375800 -8.981025 -2.509425 -14.820518 -13.252808 2.213641 0.000000 0.000000 0.000000 10.561119 5.287980 1.259768 63.841588 6.339903 -2.836830 12.566914 19.300468 2.493097 0.000000 0.000000 0.000000 
-0.000616 0.930433 0.005203 -1.312572 -0.457088 7.687103 5.656078 -0.333459 -3.864668 4.257753 -0.199201 -3.589350 1.532378 5.141238 5.383110 0.000000 0.000000 0.000000 -4.220926 0.689588 -7.959640 -2.063114 0.331113 2.081745 -1.067241 -4.262432 3.618813 0.000000 0.000000 0.000000 -0.116761 0.237965 -5.756382 -1.516462 0.758141 -4.611974 -0.330656 -1.321393 5.130166 -2.610207 2.312269 -7.655385 0.000000 0.000000 0.000000 -12.629309 -3.099502 0.543058 -57.831869 -8.829309 -2.577475 -14.089088 -12.666712 2.034885 0.000000 0.000000 0.000000 10.155257 5.433441 1.298896 63.655548 6.124484 -2.956508 12.615825 18.837577 2.419033 0.000000 0.000000 0.000000 
-0.000637 0.931123 0.005415 -1.408140 0.263099 7.618473 5.666479 -0.337781 -3.806116 4.315101 -0.192716 -3.679684 1.457045 5.141458 5.683991 0.000000 0.000000 0.000000 -4.202292 0.664606 -7.676585 -1.957061 0.307988 1.870261 -1.101587 -4.406257 3.888800 0.000000 0.000000 0.000000 -0.090926 0.233844 -5.745113 -1.273529 0.665992 -4.751026 -0.461309 -1.795142 5.314580 -2.147271 2.002919 -8.249142 0.000000 0.000000 0.000000 -12.392232 -2.593895 0.326679 -58.078684 -8.615782 -2.702353 -14.026293 -12.935000 2.074732 0.000000 0.000000 0.000000 9.992763 5.122278 1.167172 63.273553 6.145873 -2.954126 12.275014 18.641044 2.341127 0.000000 0.000000 0.000000 
-0.000418 0.931536 0.005377 -1.577944 0.533698 7.498998 5.839911 -0.339756 -3.833996 4.280106 -0.197027 -3.566292 1.413349 5.136264 5.862672 0.000000 0.000000 0.000000 -4.187760 0.642960 -7.382908 -1.718338 0.263351 1.562027 -0.761259 -3.643987 3.990334 0.000000 0.000000 0.000000 0.151038 0.231563 -5.633938 -1.157296 0.621888 -4.834770 -0.393047 -1.851803 5.122780 -2.120644 1.978165 -7.953835 0.000000 0.000000 0.000000 -12.179420 -2.490780 0.271514 -58.474018 -8.099097 -2.952608 -14.163460 -13.646977 2.209357 0.000000 0.000000 0.000000 9.623811 5.049425 1.164543 63.166545 6.063626 -2.973692 12.094078 18.382657 2.278315 0.000000 0.000000 0.000000 
-0.000172 0.931621 0.005327 -1.522823 1.208376 7.327900 5.750500 -0.341065 -3.734868 4.143646 -0.182469 -3.574444 1.216656 4.771799 5.733093 0.000000 0.000000 0.000000 -4.368315 0.612643 -7.097789 -1.575597 0.247046 1.541173 -0.781137 -3.661514 4.018280 0.000000 0.000000 0.000000 0.177245 0.227713 -5.620711 -1.074569 0.591141 -4.604155 -0.415625 -2.300154 5.026651 -2.160345 1.993672 -7.734499 0.000000 0.000000 0.000000 -11.814856 -2.474280 0.291448 -59.085275 -8.152734 -2.935675 -13.796697 -14.209169 2.259924 0.000000 0.000000 0.000000 9.424226 5.046217 1.164267 62.865510 6.048610 -2.971204 12.208557 18.458879 2.302890 0.000000 0.000000 0.000000 
0.000057 0.931602 0.005392 -1.448044 1.841852 7.220145 5.650263 -0.345811 -3.727889 3.909616 -0.167857 -3.487604 1.026250 4.405267 5.580450 0.000000 0.000000 0.000000 -4.531685 0.580840 -6.756210 -1.470983 0.227655 1.382083 -0.742986 -3.544911 4.043318 0.000000 0.000000 0.000000 0.237912 0.229893 -5.739896 -1.154415 0.631827 -4.582042 -0.347362 -2.518189 5.245763 -2.328988 2.126131 -7.934407 0.000000 0.000000 0.000000 -11.616565 -2.432970 0.269907 -59.600326 -8.283886 -2.913614 -13.814133 -14.877354 2.373784 0.000000 0.000000 0.000000 9.295638 5.127706 1.227203 62.558836 6.205136 -2.891590 12.367072 18.238071 2.299611 0.000000 0.000000 0.000000 
0.000193 0.931382 0.005465 -1.364875 2.097395 6.986061 5.797494 -0.334863 -3.457004 3.590323 -0.137623 -3.574409 0.940812 4.250800 5.551056 0.000000 0.000000 0.000000 -4.740819 0.546686 -6.347392 -1.382526 0.203135 1.090198 -0.671476 -3.378489 4.080011 0.000000 0.000000 0.000000 0.337535 0.228813 -5.704875 -1.165598 0.641069 -4.639070 -0.355197 -2.430163 5.489350 -2.295624 2.115512 -7.843780 0.000000 0.000000 0.000000 -11.182412 -2.350598 0.225706 -59.980407 -8.099935 -3.053964 -14.534260 -15.514731 2.577011 0.000000 0.000000 0.000000 9.197746 5.084046 1.249280 62.505136 6.557900 -2.714692 13.087760 18.047656 2.383488 0.000000 0.000000 0.000000 
0.000183 0.931022 0.005519 -1.292881 2.567725 6.814201 5.967469 -0.335399 -3.371701 3.340229 -0.125237 -3.450963 0.785169 3.934105 5.402285 0.000000 0.000000 0.000000 -4.844800 0.519446 -6.028221 -1.318155 0.199935 1.158050 -0.674910 -3.309392 3.946760 0.000000 0.000000 0.000000 0.421292 0.236327 -5.921082 -1.126846 0.624480 -4.332728 -0.369503 -2.601477 5.725973 -2.367012 2.163830 -7.615046 0.000000 0.000000 0.000000 -10.801443 -2.646583 0.374754 -60.490544 -8.050526 -3.125167 -15.055962 -16.261643 2.784242 0.000000 0.000000 0.000000 8.815510 5.309075 1.381537 62.756097 6.947556 -2.536882 13.807085 18.093837 2.496311 0.000000 0.000000 0.000000 
0.000153 0.930855 0.005434 -1.143691 2.870770 6.692197 5.900159 -0.337829 -3.408183 3.280908 -0.133400 -3.227635 0.752275 3.852332 5.298602 0.000000 0.000000 0.000000 -4.976882 0.509207 -5.987301 -1.234459 0.201807 1.387795 -0.663803 -3.215791 3.808523 0.000000 0.000000 0.000000 0.496734 0.233501 -5.859051 -1.075479 0.606755 -4.353595 -0.465905 -2.660440 5.935236 -2.444281 2.213547 -7.183204 0.000000 0.000000 0.000000 -10.679822 -3.211200 0.622880 -60.622974 -8.007764 -3.183061 -15.958011 -16.905587 3.035141 0.000000 0.000000 0.000000 8.708442 5.891798 1.658503 62.913425 7.403236 -2.309430 14.863072 18.193963 2.670021 0.000000 0.000000 0.000000 
0.000208 0.930520 0.005182 -1.060152 3.172602 6.519837 5.774523 -0.334807 -3.332001 3.561009 -0.163080 -3.072197 0.598009 3.569567 5.264964 0.000000 0.000000 0.000000 -5.019751 0.500661 -5.950573 -1.304165 0.217692 1.528947 -0.680021 -3.266592 3.890047 0.000000 0.000000 0.000000 0.546138 0.227121 -5.715612 -0.953360 0.562278 -4.502859 -0.472384 -2.604142 6.122174 -2.578618 2.316075 -6.922106 0.000000 0.000000 0.000000 -10.428590 -3.677471 0.816329 -60.965591 -7.834297 -3.321129 -16.770088 -17.586978 3.287035 0.000000 0.000000 0.000000 8.347514 6.341257 1.898533 63.274681 7.812344 -2.102492 15.702870 18.177771 2.798798 0.000000 0.000000 0.000000 
0.000364 0.930185 0.004690 -0.943324 3.432946 6.517422 5.671547 -0.341069 -3.438413 3.679857 -0.184470 -2.861698 0.533653 3.421355 5.155323 0.000000 0.000000 0.000000 -4.978139 0.502415 -6.023218 -1.479325 0.249357 1.723496 -0.766173 -3.379922 3.683245 0.000000 0.000000 0.000000 0.609984 0.226705 -5.708081 -0.977714 0.568642 -4.242373 -0.510583 -2.661112 5.941029 -2.486178 2.240818 -6.543893 0.000000 0.000000 0.000000 -10.229846 -4.238885 1.058875 -61.075438 -7.698517 -3.383334 -17.912138 -18.315145 3.612663 0.000000 0.000000 0.000000 8.067979 7.133300 2.254741 63.578277 8.374258 -1.774323 16.364133 18.264257 2.912978 0.000000 0.000000 0.000000 
0.000519 0.929862 0.003945 -0.805008 3.335650 6.646113 5.394810 -0.346732 -3.611875 3.897049 -0.213964 -2.681516 0.546306 3.396008 5.044464 0.000000 0.000000 0.000000 -5.105103 0.517427 -6.319384 -1.433610 0.260454 2.066865 -0.834834 -3.486702 3.518159 0.000000 0.000000 0.000000 0.524290 0.225462 -5.715628 -1.054318 0.603076 -4.370070 -0.465679 -2.516311 6.183058 -2.282765 2.109042 -6.785870 0.000000 0.000000 0.000000 -10.060177 -4.834716 1.324742 -61.068500 -7.702500 -3.408648 -19.050684 -19.449503 4.048975 0.000000 0.000000 0.000000 8.001683 7.728368 2.525362 63.943373 9.028430 -1.433182 16.728317 18.556755 3.027522 0.000000 0.000000 0.000000 
0.000616 0.929795 0.003122 -0.724810 3.039405 6.588247 5.151511 -0.338321 -3.539026 4.033140 -0.245599 -2.406976 0.573937 3.319017 4.764366 0.000000 0.000000 0.000000 -5.252971 0.523217 -6.453250 -1.459163 0.278106 2.363706 -0.790781 -3.407310 3.544597 0.000000 0.000000 0.000000 0.319768 0.219491 -5.625917 -0.977173 0.566958 -4.336950 -0.471012 -2.362703 6.296239 -2.421254 2.197657 -6.452069 0.000000 0.000000 0.000000 -9.825788 -5.417247 1.595808 -61.016033 -7.799750 -3.364142 -19.971185 -20.300583 4.409648 0.000000 0.000000 0.000000 7.694371 8.604171 2.902312 64.401076 10.020347 -0.886970 17.207657 18.768245 3.139620 0.000000 0.000000 0.000000 
0.000609 0.929366 0.002324 -0.673555 2.623945 6.609083 5.166818 -0.341452 -3.687983 4.053409 -0.276374 -2.023840 0.746222 3.588454 4.676014 0.000000 0.000000 0.000000 -5.307021 0.528126 -6.476138 -1.592900 0.284690 2.165721 -0.757253 -3.324465 3.475449 0.000000 0.000000 0.000000 0.235285 0.228247 -5.834888 -0.993720 0.561611 -3.996079 -0.239632 -2.293602 6.326583 -2.661050 2.342424 -5.837689 0.000000 0.000000 0.000000 -9.462945 -5.951184 1.870465 -60.970768 -7.985565 -3.251494 -21.500952 -21.297690 4.949849 0.000000 0.000000 0.000000 7.470503 9.351684 3.194123 64.430951 11.073726 -0.313874 17.509872 19.231599 3.267597 0.000000 0.000000 0.000000 
